<svg width="194" height="46" viewBox="0 0 194 46" fill="none" xmlns="http://www.w3.org/2000/svg">
<path d="M56.1376 11.6213V33.0879H51.0422V11.6213H56.1376ZM54.2344 11.6213H58.3649C60.1551 11.6213 61.6551 11.9011 62.8724 12.4646C64.0897 13.0281 65.0092 13.8293 65.6311 14.8719C66.2529 15.9146 66.5657 17.1719 66.5657 18.6439C66.5657 20.1159 66.2529 21.3158 65.6311 22.3699C65.0092 23.4241 64.0897 24.2291 62.8724 24.7926C61.6551 25.3561 60.1551 25.6359 58.3649 25.6359H54.2344V21.3733H58.3649C59.39 21.3733 60.1928 21.1394 60.7769 20.6679C61.3611 20.1964 61.6513 19.5218 61.6513 18.6439C61.6513 17.7661 61.3611 17.0608 60.7769 16.5893C60.1928 16.1178 59.39 15.8839 58.3649 15.8839H54.2344V11.6213Z" fill="#003781"/>
<path d="M74.9174 11.6213V33.0879H69.822V11.6213H74.9174ZM73.0179 11.6213H77.5103C79.3193 11.6213 80.8268 11.9164 82.0328 12.5106C83.2388 13.1048 84.1546 13.9251 84.7764 14.9793C85.3983 16.0334 85.7111 17.2524 85.7111 18.6439C85.7111 20.0354 85.3983 21.2238 84.7764 22.2779C84.1546 23.3321 83.2388 24.1524 82.0328 24.7466C80.8268 25.3408 79.3193 25.6359 77.5103 25.6359H73.0179V21.6186H77.1485C77.8306 21.6186 78.4186 21.5113 78.9123 21.2966C79.406 21.0819 79.7828 20.7638 80.0429 20.3459C80.3029 19.9281 80.4348 19.4221 80.4348 18.8279C80.4348 18.2338 80.3029 17.7278 80.0429 17.3099C79.7828 16.8921 79.406 16.5701 78.9123 16.3439C78.4186 16.1178 77.8306 16.0066 77.1485 16.0066H73.0179V11.6213ZM80.3745 23.3666L86.9774 33.0879H81.0077L75.0681 23.3666H80.3745Z" fill="#003781"/>
<path d="M89.5853 17.8159C90.1582 16.4474 90.9572 15.2591 91.9823 14.2586C93.0074 13.2581 94.2134 12.4838 95.6003 11.9433C96.9872 11.4028 98.4834 11.1306 100.093 11.1306C101.702 11.1306 103.224 11.4028 104.6 11.9433C105.976 12.4838 107.178 13.2581 108.203 14.2586C109.228 15.2591 110.023 16.4474 110.585 17.8159C111.146 19.1844 111.429 20.6986 111.429 22.3546C111.429 24.0106 111.154 25.5324 110.6 26.9239C110.046 28.3154 109.262 29.5191 108.248 30.5426C107.234 31.5661 106.032 32.3558 104.645 32.9193C103.258 33.4828 101.74 33.7626 100.093 33.7626C98.4457 33.7626 96.8967 33.4828 95.5098 32.9193C94.1229 32.3558 92.9207 31.5661 91.9069 30.5426C90.8931 29.5191 90.1092 28.3154 89.5552 26.9239C89.0012 25.5324 88.7261 24.0106 88.7261 22.3546C88.7261 20.6986 89.0125 19.1844 89.5853 17.8159ZM94.8616 25.7126C95.3553 26.6824 96.0488 27.4453 96.942 27.9973C97.8351 28.5493 98.8866 28.8253 100.093 28.8253C101.299 28.8253 102.32 28.5493 103.213 27.9973C104.106 27.4453 104.8 26.6824 105.294 25.7126C105.787 24.7428 106.032 23.6234 106.032 22.3546C106.032 21.0858 105.791 19.9664 105.309 18.9966C104.826 18.0268 104.144 17.2639 103.258 16.7119C102.373 16.1599 101.317 15.8839 100.093 15.8839C98.8678 15.8839 97.8351 16.1599 96.942 16.7119C96.0488 17.2639 95.3553 18.0268 94.8616 18.9966C94.3679 19.9664 94.1229 21.0858 94.1229 22.3546C94.1229 23.6234 94.3679 24.7428 94.8616 25.7126Z" fill="#003781"/>
<path d="M125.931 33.4253C124.303 33.4253 122.796 33.1455 121.409 32.582C120.022 32.0185 118.812 31.2326 117.776 30.2206C116.739 29.2086 115.937 28.0165 115.364 26.648C114.791 25.2795 114.504 23.796 114.504 22.2013C114.504 20.6066 114.791 19.1001 115.364 17.7393C115.937 16.3785 116.739 15.1978 117.776 14.1973C118.812 13.1968 120.018 12.4071 121.394 11.836C122.769 11.2648 124.262 10.9773 125.871 10.9773C127.559 10.9773 129.078 11.2495 130.424 11.79C131.769 12.3305 132.956 13.0818 133.981 14.044L130.363 17.724C129.862 17.1528 129.236 16.7005 128.494 16.3746C127.752 16.0488 126.877 15.884 125.871 15.884C125.008 15.884 124.216 16.0258 123.504 16.3133C122.792 16.6008 122.174 17.0225 121.65 17.586C121.126 18.1495 120.719 18.8165 120.429 19.5946C120.139 20.3728 119.992 21.2391 119.992 22.2013C119.992 23.1635 120.139 24.0298 120.429 24.808C120.719 25.5861 121.126 26.2531 121.65 26.8166C122.174 27.3801 122.792 27.8095 123.504 28.1046C124.216 28.3998 125.008 28.5493 125.871 28.5493C126.877 28.5493 127.759 28.3921 128.524 28.074C129.289 27.7558 129.941 27.3035 130.484 26.7093L134.102 30.3893C133.058 31.3515 131.875 32.0951 130.559 32.628C129.244 33.1608 127.699 33.4253 125.931 33.4253Z" fill="#003781"/>
<path d="M142.303 11.6213V25.6666C142.303 26.7514 142.585 27.6293 143.147 28.3039C143.708 28.9786 144.553 29.3159 145.679 29.3159C146.806 29.3159 147.681 28.9786 148.242 28.3039C148.804 27.6293 149.086 26.7514 149.086 25.6666V11.6213H154.182V26.0346C154.182 27.3839 153.967 28.5608 153.534 29.5613C153.1 30.5618 152.497 31.3859 151.725 32.0299C150.952 32.6739 150.047 33.1608 149.011 33.4866C147.975 33.8124 146.867 33.9773 145.679 33.9773C144.492 33.9773 143.388 33.8124 142.363 33.4866C141.338 33.1608 140.437 32.6739 139.665 32.0299C138.892 31.3859 138.289 30.5618 137.856 29.5613C137.422 28.5608 137.207 27.3839 137.207 26.0346V11.6213H142.303Z" fill="#003781"/>
<path d="M162.292 20.1466H165.699C166.283 20.1466 166.781 20.0546 167.191 19.8706C167.602 19.6866 167.919 19.4259 168.141 19.0886C168.364 18.7513 168.473 18.3373 168.473 17.8466C168.473 17.1106 168.228 16.5586 167.734 16.1906C167.24 15.8226 166.562 15.6386 165.699 15.6386H163.589V29.0706H166.181C166.845 29.0706 167.436 28.9824 167.96 28.8099C168.484 28.6374 168.899 28.3499 169.212 27.9513C169.524 27.5526 169.679 27.0044 169.679 26.3106C169.679 25.8621 169.588 25.4711 169.407 25.1453C169.227 24.8194 168.974 24.5511 168.654 24.3479C168.333 24.1448 167.964 23.9953 167.553 23.9033C167.142 23.8113 166.683 23.7653 166.181 23.7653H162.292V20.9439H166.754C167.779 20.9439 168.774 21.0551 169.739 21.2813C170.704 21.5074 171.578 21.8678 172.362 22.3699C173.146 22.8721 173.775 23.5046 174.247 24.2713C174.718 25.0379 174.955 25.9618 174.955 27.0466C174.955 28.4764 174.62 29.6341 173.945 30.5119C173.27 31.3898 172.321 32.0414 171.096 32.4593C169.871 32.8771 168.424 33.0879 166.754 33.0879H158.493V11.6213H166.242C167.708 11.6213 169 11.8206 170.116 12.2193C171.232 12.6179 172.117 13.2198 172.769 14.0286C173.421 14.8374 173.749 15.8533 173.749 17.0799C173.749 18.2031 173.421 19.1653 172.769 19.9626C172.117 20.7599 171.232 21.3694 170.116 21.7873C169 22.2051 167.708 22.4159 166.242 22.4159H162.292V20.1466Z" fill="#003781"/>
<path d="M183.397 11.6213V33.0879H178.513V11.6213H183.397ZM181.89 11.6213H192.533V15.8839H181.89V11.6213ZM181.89 19.7173H191.93V23.8879H181.89V19.7173ZM181.89 28.8253H192.533V33.0879H181.89V28.8253Z" fill="#003781"/>
<path d="M0 10.5647V10.5599L0.767445 33.042L19.4912 44.9546V22.0264L0 10.5647Z" fill="#003781"/>
<path d="M38.9824 10.5599L38.9776 10.5647L30.1878 15.7331L19.4912 22.0264V44.9546L38.215 33.042L38.9824 10.5599Z" fill="#2BC8D7"/>
<path d="M19.4912 0L0 10.5599V10.5647L19.4912 22.0264L30.1878 15.7331L38.9776 10.5647L38.9824 10.5599L19.4912 0Z" fill="#0091C0"/>
<path d="M29.592 32.8772C28.8245 33.2262 28.1143 33.4105 27.4612 33.425C26.8034 33.4396 26.2314 33.3087 25.7357 33.0226C25.2399 32.7365 24.8538 32.3147 24.5774 31.7523C24.3009 31.1899 24.1531 30.5111 24.1436 29.716C24.134 28.9208 24.258 28.1063 24.5201 27.3015C24.7823 26.5015 25.1494 25.7354 25.6308 25.0179C26.1122 24.2954 26.6747 23.6458 27.3182 23.064C27.9617 22.4821 28.6624 22.0215 29.4204 21.6773C30.2164 21.3137 30.9314 21.1246 31.5654 21.11C32.2041 21.0906 32.7666 21.2119 33.2528 21.4737L31.5749 24.087C31.3366 23.9076 31.0363 23.8155 30.6883 23.8155C30.3356 23.8155 29.9256 23.9173 29.449 24.1306C29.0438 24.3148 28.672 24.5573 28.3383 24.853C28.0046 25.1488 27.7186 25.493 27.4755 25.8857C27.2324 26.2785 27.0465 26.7003 26.9131 27.1512C26.7796 27.6021 26.7176 28.0675 26.7224 28.5475C26.7272 29.0275 26.8034 29.4299 26.9464 29.7548C27.0894 30.0796 27.2849 30.3269 27.5327 30.4966C27.7806 30.6663 28.0761 30.7487 28.4146 30.7438C28.753 30.7438 29.1248 30.642 29.53 30.4578C30.0019 30.2445 30.4166 29.9729 30.7741 29.653C31.1316 29.333 31.4367 28.9645 31.6893 28.5524L33.4149 29.6142C32.9287 30.3172 32.3805 30.9426 31.7608 31.4905C31.1411 32.0384 30.4214 32.499 29.5872 32.882L29.592 32.8772Z" fill="white"/>
<path d="M7.94622 20.8676L8.10829 32.6057L5.63912 31.1124L5.47705 19.3743L7.94622 20.8676ZM7.02624 20.3101L9.02827 21.5222C9.89582 22.0458 10.6251 22.6373 11.2162 23.2919C11.8073 23.9464 12.2601 24.6397 12.57 25.3718C12.8798 26.1039 13.0371 26.8603 13.0514 27.636C13.0657 28.4118 12.9227 28.9548 12.6272 29.3281C12.3316 29.7015 11.8931 29.8566 11.3115 29.7984C10.7252 29.7402 10.0007 29.4445 9.13314 28.9209L7.13111 27.7088L7.09774 25.4591L9.09977 26.6712C9.59551 26.9718 9.98162 27.0833 10.2629 27.0057C10.5393 26.9282 10.6776 26.6567 10.6728 26.1961C10.668 25.7355 10.5203 25.2749 10.2343 24.853C9.94825 24.4361 9.55738 24.0724 9.06164 23.7718L7.05961 22.5597L7.02624 20.3101Z" fill="white"/>
</svg>
